<svg  class="icon" viewBox="0 0 1024 1024" version="1.1" xmlns="http://www.w3.org/2000/svg"  width="16" height="16"><path d="M838.4 68.266667h-512c-46.933333 0-85.333333 36.266667-85.333333 81.066666v38.4H185.6c-46.933333 0-85.333333 38.4-85.333333 85.333334v597.333333c0 46.933333 38.4 85.333333 85.333333 85.333333h512c46.933333 0 85.333333-38.4 85.333333-85.333333v-36.266667h55.466667c46.933333 0 85.333333-38.4 85.333333-85.333333v-597.333333c0-44.8-38.4-83.2-85.333333-83.2z m-98.133333 802.133333c0 23.466667-19.2 42.666667-42.666667 42.666667h-512c-23.466667 0-42.666667-19.2-42.666667-42.666667v-597.333333c0-23.466667 19.2-42.666667 42.666667-42.666667h512c23.466667 0 42.666667 19.2 42.666667 42.666667v597.333333z m140.8-119.466667c0 23.466667-19.2 42.666667-42.666667 42.666667h-55.466667V273.066667c0-46.933333-38.4-85.333333-85.333333-85.333334H283.733333V149.333333c0-21.333333 19.2-38.4 42.666667-38.4h512c23.466667 0 42.666667 19.2 42.666667 42.666667v597.333333z m-450.133334-83.2h-204.8c-12.8 0-21.333333 8.533333-21.333333 21.333334s8.533333 21.333333 21.333333 21.333333h204.8c12.8 0 21.333333-8.533333 21.333334-21.333333s-10.666667-21.333333-21.333334-21.333334z m98.133334-10.666666c-17.066667 0-32 14.933333-32 32s14.933333 32 32 32 32-14.933333 32-32-12.8-32-32-32z m128-234.666667H224c-12.8 0-21.333333 8.533333-21.333333 21.333333s8.533333 21.333333 21.333333 21.333334h433.066667c12.8 0 21.333333-8.533333 21.333333-21.333334s-8.533333-21.333333-21.333333-21.333333z" fill="#ffffff" ></path></svg>