<?xml version="1.0" standalone="no"?><!DOCTYPE svg PUBLIC "-//W3C//DTD SVG 1.1//EN"
        "http://www.w3.org/Graphics/SVG/1.1/DTD/svg11.dtd">
<svg class="icon" viewBox="0 0 1024 1024" version="1.1" xmlns="http://www.w3.org/2000/svg"
     xmlns:xlink="http://www.w3.org/1999/xlink" width="13" height="13">
    <path d="M476.643556 126.023111v165.930667h56.888888V126.008889z" fill="#D8E2FF"></path>
    <path d="M505.088 119.111111m-62.222222 0a62.222222 62.222222 0 1 0 124.444444 0 62.222222 62.222222 0 1 0-124.444444 0Z"
          fill="#00BC70"></path>
    <path d="M42.666667 513.180444h54.513777v179.768889H42.666667a28.444444 28.444444 0 0 1-28.444445-28.444444v-122.88a28.444444 28.444444 0 0 1 28.444445-28.444445z m938.666666 0h-54.513777v179.768889H981.333333a28.444444 28.444444 0 0 0 28.444445-28.444444v-122.88a28.444444 28.444444 0 0 0-28.444445-28.444445z"
          fill="#ABB6D5"></path>
    <path d="M926.336 452.224v22.869333a56.917333 56.917333 0 0 1 41.955556 54.912v126.478223c0 26.24-17.777778 48.355556-41.955556 54.897777v102.442667a113.777778 113.777778 0 0 1-113.777778 113.777778H211.441778a113.777778 113.777778 0 0 1-113.777778-113.777778V711.395556a56.917333 56.917333 0 0 1-41.955556-54.912v-126.478223c0-26.254222 17.777778-48.355556 41.955556-54.897777v-22.883556h828.672zM696.718222 222.435556c126.819556 0 229.617778 102.798222 229.617778 229.617777H97.664c0-126.819556 102.798222-229.617778 229.617778-229.617777z"
          fill="#D6E1FF"></path>
    <path d="M926.336 466.446222v22.869334a56.917333 56.917333 0 0 1 41.955556 54.912v126.478222c0 26.24-17.777778 48.355556-41.955556 54.897778v102.442666a113.777778 113.777778 0 0 1-113.777778 113.777778H211.441778a113.777778 113.777778 0 0 1-113.777778-113.777778V725.617778a56.917333 56.917333 0 0 1-41.955556-54.912v-126.478222c0-26.254222 17.777778-48.355556 41.955556-54.897778v-22.883556h828.672zM696.718222 236.657778c126.819556 0 229.617778 102.798222 229.617778 229.617778H97.664c0-126.819556 102.798222-229.617778 229.617778-229.617778z"
          fill="#ECF1FF"></path>
    <path d="M688.341333 402.574222c84.522667 0 153.287111 67.413333 155.448889 151.424l0.056889 4.067556v175.032889a84.280889 84.280889 0 0 1-84.280889 84.280889H264.433778a84.280889 84.280889 0 0 1-84.280889-84.280889V547.555556c0-78.734222 62.762667-142.805333 140.970667-144.924445l3.996444-0.042667h60.572444a147.313778 147.313778 0 0 0 121.031112 63.203556c50.119111 0 94.392889-25.002667 121.045333-63.203556H688.355556z"
          fill="#001C3C"></path>
    <path d="M389.404444 395.463111l2.119112 3.043556a140.188444 140.188444 0 0 0 115.2 60.16c46.478222 0 89.116444-22.755556 115.214222-60.16l2.133333-3.043556h64.270222c88.220444 0 160.298667 70.343111 162.56 158.435556l0.056889 4.167111v175.032889a91.392 91.392 0 0 1-91.392 91.392H264.433778a91.392 91.392 0 0 1-91.392-91.392V547.555556c0-82.432 65.678222-149.802667 147.996444-152.035556l4.081778-0.042667h64.284444z m242.005334 14.222222l-0.554667 0.782223a154.353778 154.353778 0 0 1-119.324444 62.350222l-4.792889 0.071111c-51.185778 0-98.133333-25.059556-126.876445-66.247111l2.190223 3.043555h-56.832l-3.896889 0.042667c-74.524444 2.019556-134.058667 63.089778-134.058667 137.813333v185.557334a77.169778 77.169778 0 0 0 77.169778 77.169777h495.132444a77.169778 77.169778 0 0 0 77.169778-77.169777v-174.933334l-0.042667-3.982222c-2.076444-80.312889-67.84-144.497778-148.352-144.497778h-56.931555z"
          fill="#FAFAFA"></path>
    <path d="M356.337778 623.800889a58.865778 38.129778 90 1 0 76.259555 0 58.865778 38.129778 90 1 0-76.259555 0Z"
          fill="#C6F7FF"></path>
    <path d="M591.402667 623.800889a58.865778 38.129778 90 1 0 76.259555 0 58.865778 38.129778 90 1 0-76.259555 0Z"
          fill="#C6F7FF"></path>
</svg>