<?xml version="1.0" encoding="UTF-8"?>
<svg width="72px" height="72px" viewBox="0 0 72 72" version="1.1" xmlns="http://www.w3.org/2000/svg" xmlns:xlink="http://www.w3.org/1999/xlink">
    <title>openpilot- disable</title>
    <g id="openpilot--disable" stroke="none" stroke-width="1" fill="none" fill-rule="evenodd">
        <g id="编组-47备份-4" transform="translate(1.000000, 4.000000)">
            <polygon id="路径-22" fill="#909090" fill-rule="nonzero" points="32.5138889 4.86111111 32.5138889 16.5277778 36.5138889 16.5277778 36.5138889 4.86111111"></polygon>
            <circle id="椭圆形" fill="#A0A0A0" cx="34.5138889" cy="4.375" r="4.375"></circle>
            <path d="M2,32.0833333 L5.83333333,32.0833333 L5.83333333,32.0833333 L5.83333333,44.7222222 L2,44.7222222 C0.8954305,44.7222222 1.3527075e-16,43.8267917 0,42.7222222 L0,34.0833333 C-1.3527075e-16,32.9787638 0.8954305,32.0833333 2,32.0833333 Z M68,32.0833333 L64.1666667,32.0833333 L64.1666667,32.0833333 L64.1666667,44.7222222 L68,44.7222222 C69.1045695,44.7222222 70,43.8267917 70,42.7222222 L70,34.0833333 C70,32.9787638 69.1045695,32.0833333 68,32.0833333 Z" id="形状结合" fill="#A1A1A1"></path>
            <path d="M64.1331418,27.7971035 L64.1336342,29.4053481 C65.8332813,29.8666396 67.0833333,31.4203532 67.0833333,33.2660321 L67.0833333,42.1587109 C67.0833333,44.0043898 65.8332813,45.5581034 64.1336342,46.0193949 L64.1331418,53.2222222 C64.1331418,57.6405002 60.5514198,61.2222222 56.1331418,61.2222222 L13.8668582,61.2222222 C9.44858024,61.2222222 5.86685824,57.6405002 5.86685824,53.2222222 L5.86679504,46.0195113 C4.16692912,45.558365 2.91666667,44.0045452 2.91666667,42.1587109 L2.91666667,33.2660321 C2.91666667,31.4201978 4.16692912,29.866378 5.86679504,29.4052316 L5.86685824,27.7971035 L64.1331418,27.7971035 Z M47.9882412,11.6388889 C56.9048235,11.6388889 64.1331418,18.8672071 64.1331418,27.7837895 L5.86685824,27.7837895 C5.86685824,18.8672071 13.0951765,11.6388889 22.0117588,11.6388889 Z" id="形状结合" fill="#8D8D8D"></path>
            <path d="M64.1331418,28.7971035 L64.1336342,30.4053481 C65.8332813,30.8666396 67.0833333,32.4203532 67.0833333,34.2660321 L67.0833333,43.1587109 C67.0833333,45.0043898 65.8332813,46.5581034 64.1336342,47.0193949 L64.1331418,54.2222222 C64.1331418,58.6405002 60.5514198,62.2222222 56.1331418,62.2222222 L13.8668582,62.2222222 C9.44858024,62.2222222 5.86685824,58.6405002 5.86685824,54.2222222 L5.86679504,47.0195113 C4.16692912,46.558365 2.91666667,45.0045452 2.91666667,43.1587109 L2.91666667,34.2660321 C2.91666667,32.4201978 4.16692912,30.866378 5.86679504,30.4052316 L5.86685824,28.7971035 L64.1331418,28.7971035 Z M47.9882412,12.6388889 C56.9048235,12.6388889 64.1331418,19.8672071 64.1331418,28.7837895 L5.86685824,28.7837895 C5.86685824,19.8672071 13.0951765,12.6388889 22.0117588,12.6388889 Z" id="形状结合备份" fill="#DBDBDB"></path>
            <path d="M47.3988612,24.3055556 C53.3417353,24.3053436 58.1774163,29.0463519 58.3296379,34.9525689 L58.3333333,35.2394429 L58.3333333,47.5462171 C58.3333333,50.8190593 55.6802059,53.4722222 52.4074074,53.4722222 L17.5925926,53.4722222 C14.3197941,53.4722222 11.6666667,50.8190593 11.6666667,47.5462171 L11.6666667,34.4988971 C11.6666667,28.9630971 16.079525,24.4579755 21.5794313,24.3093424 L21.8603981,24.3055556 L26.1188453,24.3062939 C27.9929242,26.9923368 31.1060561,28.7496695 34.6296296,28.7496695 C38.1532031,28.7496695 41.2663351,26.9923368 43.140414,24.3062939 L47.3988612,24.3055556 Z" id="形状结合" fill="#4C5052"></path>
            <path d="M26.3796937,23.8063391 L26.5289019,24.0201933 C28.3641418,26.6505697 31.3618319,28.2496695 34.6296296,28.2496695 C37.8974273,28.2496695 40.8951175,26.6505697 42.7303574,24.0201933 L42.8795655,23.8063391 L47.3988433,23.8055556 C53.6020555,23.8055556 58.6699862,28.7516215 58.8295964,34.9461286 L58.8333333,35.2394429 L58.8333333,47.5462171 C58.8333333,51.0952002 55.9563498,53.9722222 52.4074074,53.9722222 L17.5925926,53.9722222 C14.0436502,53.9722222 11.1666667,51.0952002 11.1666667,47.5462171 L11.1666667,34.4988971 C11.1666667,28.7027497 15.7846872,23.9657608 21.5726929,23.8093879 L21.8604848,23.8055556 L26.3796937,23.8063391 Z M43.3956667,24.8055556 L43.3573389,24.860521 C41.3890642,27.5081788 38.3211053,29.1418825 34.9660609,29.2445277 L34.6296296,29.2496695 C31.0314637,29.2496695 27.7291187,27.4880534 25.7087886,24.5923945 L25.8626667,24.8055556 L21.8671365,24.8055101 L21.5929387,24.80916 C16.3529161,24.9507697 12.1666667,29.2448643 12.1666667,34.4988971 L12.1666667,47.5462171 C12.1666667,50.5429185 14.5959379,52.9722222 17.5925926,52.9722222 L52.4074074,52.9722222 C55.4040621,52.9722222 57.8333748,50.5429185 57.8333748,47.5462171 L57.8333748,35.2458832 L57.8298039,34.9654512 C57.6842807,29.319134 53.0594935,24.8053537 47.398879,24.8055556 L43.3956667,24.8055556 Z" id="形状结合" fill="#E9E9E9" fill-rule="nonzero"></path>
            <ellipse id="椭圆形" stroke="#ECECEC" stroke-width="0.5" fill="#DEDEDE" cx="26.7361111" cy="39.8611111" rx="2.68055556" ry="4.13888889"></ellipse>
            <ellipse id="椭圆形备份-8" stroke="#ECECEC" stroke-width="0.5" fill="#DEDEDE" cx="43.2638889" cy="39.8611111" rx="2.68055556" ry="4.13888889"></ellipse>
        </g>
    </g>
</svg>