<?xml version="1.0" standalone="no"?><!DOCTYPE svg PUBLIC "-//W3C//DTD SVG 1.1//EN"
        "http://www.w3.org/Graphics/SVG/1.1/DTD/svg11.dtd">
<svg class="icon" viewBox="0 0 1024 1024" version="1.1" xmlns="http://www.w3.org/2000/svg"
     xmlns:xlink="http://www.w3.org/1999/xlink" width="13" height="13">
    <path d="M183.523556 272.981333l137.884444 136.746667c-74.609778 2.019556-134.144 63.089778-134.144 137.813333v185.557334a77.169778 77.169778 0 0 0 77.169778 77.169777h460.871111l125.880889 124.828445a113.564444 113.564444 0 0 1-38.627556 6.727111H211.441778a113.777778 113.777778 0 0 1-113.777778-113.777778V725.617778a57.031111 57.031111 0 0 1-37.432889-32.654222L42.666667 692.935111a28.444444 28.444444 0 0 1-28.444445-28.444444v-122.865778a28.444444 28.444444 0 0 1 28.444445-28.444445h15.559111a57.002667 57.002667 0 0 1 39.438222-38.087111v-22.869333h0.426667v-0.199111h-0.426667c0-72.391111 33.507556-136.96 85.859556-179.057778zM505.088 56.888889a62.222222 62.222222 0 0 1 28.444444 117.575111v47.943111h163.185778c126.819556 0 229.617778 102.826667 229.617778 229.632l-0.426667-0.014222v0.199111h0.426667v22.869333a57.002667 57.002667 0 0 1 39.438222 38.101334H981.333333a28.444444 28.444444 0 0 1 28.444445 28.444444v122.851556a28.444444 28.444444 0 0 1-28.444445 28.444444l-17.550222 0.028445a57.031111 57.031111 0 0 1-37.432889 32.64v102.442666a113.336889 113.336889 0 0 1-27.52 74.183111l-102.257778-101.404444a77.155556 77.155556 0 0 0 40.163556-67.726222v-174.933334l-0.042667-3.982222c-2.076444-80.312889-67.84-144.497778-148.352-144.497778h-56.931555l-0.554667 0.782223a154.353778 154.353778 0 0 1-119.324444 62.350222l-4.792889 0.071111c-16.910222 0-33.351111-2.730667-48.824889-7.879111L233.472 242.389333a228.807111 228.807111 0 0 1 93.809778-19.968l149.361778-0.014222v-47.928889a62.222222 62.222222 0 0 1 28.444444-117.589333z m-110.620444 504.490667c23.893333 0 41.671111 28.444444 41.671111 62.435555 0 33.962667-17.777778 62.407111-41.671111 62.407111-23.893333 0-41.671111-28.444444-41.671112-62.421333 0-33.976889 17.777778-62.421333 41.671112-62.421333z m235.064888 0c23.893333 0 41.671111 28.444444 41.671112 62.435555 0 16.071111-3.982222 30.904889-10.695112 42.069333l-68.892444-68.309333c6.442667-21.205333 20.565333-36.195556 37.916444-36.195555z"
          fill="#afb1b3"></path>
    <path d="M95.047111 201.841778a28.444444 28.444444 0 0 1 40.220445-0.170667l754.688 748.401778a28.444444 28.444444 0 1 1-40.064 40.391111L95.203556 242.076444a28.444444 28.444444 0 0 1-0.156445-40.234666z"
          fill="#afb1b3"></path>
</svg>