<?xml version="1.0" standalone="no"?><!DOCTYPE svg PUBLIC "-//W3C//DTD SVG 1.1//EN" "http://www.w3.org/Graphics/SVG/1.1/DTD/svg11.dtd"><svg t="1718360004790" class="icon" viewBox="0 0 1024 1024" version="1.1" xmlns="http://www.w3.org/2000/svg" p-id="6256" xmlns:xlink="http://www.w3.org/1999/xlink" width="16" height="16"><path d="M891.948987 415.265842c-1.179872-10.754948-10.288321-19.125593-21.357424-19.125593-11.06808 0-20.176528 8.370645-21.355377 19.125593l-0.138146 0 0 373.048321c0 34.241872-27.854395 62.09422-62.09422 62.09422l-551.684838 0c-34.237779 0-62.09422-27.852348-62.09422-62.09422L173.224762 232.148267c0-34.238802 27.856441-62.09422 62.09422-62.09422l370.370329 0 0-0.030699c11.596106-0.314155 20.907169-9.790994 20.907169-21.463848 0-11.672854-9.311063-21.149693-20.907169-21.463848l0-0.030699L235.318982 127.064954c-57.942667 0-105.08229 47.139623-105.08229 105.08229l0 556.165896c0 57.942667 47.139623 105.081267 105.08229 105.081267l551.684838 0c57.942667 0 105.081267-47.1386 105.081267-105.081267L892.085086 415.265842 891.948987 415.265842z" fill="#afb1b3" p-id="6257"></path><path d="M338.386382 640.382972l-0.098237 0.401136c-1.759063 7.462972-3.27458 21.424962 6.352685 31.04711 5.969968 5.980201 13.610996 7.66354 20.327978 7.66354 4.100388 0 7.860015-0.629333 10.686387-1.292436l117.404943-31.000038 374.183168-374.183168c13.081946-13.080923 20.286022-30.473035 20.286022-48.972365s-7.204076-35.892465-20.286022-48.972365l-25.894763-25.895787c-27.006074-27.003004-70.942749-27.009144-97.948823-0.001023L369.180735 523.397584 338.386382 640.382972zM403.702993 558.714951l54.066383 54.061266-72.705905 18.640546L403.702993 558.714951zM429.577291 523.793604l292.435329-292.433282 63.047941 63.047941L492.627279 586.842569 429.577291 523.793604zM810.950208 179.574888l25.895787 25.895787c10.243295 10.243295 10.243295 26.90886 0 37.153178l-21.389146 21.388123-63.044872-63.047941 21.386076-21.388123C784.043395 169.328523 800.711006 169.335686 810.950208 179.574888z" fill="#afb1b3" p-id="6258"></path></svg>