<svg  class="icon" viewBox="0 0 1024 1024" version="1.1" xmlns="http://www.w3.org/2000/svg"  width="16" height="16"><path d="M856.8832 166.912H391.3728v114.0736h465.5104V166.912m57.0368 0v114.0736a60.2112 60.2112 0 0 1-60.0064 60.1088H388.3008a60.2112 60.2112 0 0 1-60.0064-60.1088V166.912a60.1088 60.1088 0 0 1 60.0064-60.1088h468.5824c33.0752 0 57.0368 24.064 57.0368 60.1088zM625.5616 452.1984H160.0512v114.176h465.5104V452.1984m57.1392 0v114.176a60.2112 60.2112 0 0 1-60.1088 60.0064H157.0816a60.1088 60.1088 0 0 1-60.1088-60.0064V452.1984a60.3136 60.3136 0 0 1 60.1088-60.1088h468.48c33.0752 6.0416 57.1392 30.1056 57.1392 60.1088z m174.08 291.328H391.3728v114.176h465.5104V743.5264m57.0368 0v114.176a60.1088 60.1088 0 0 1-60.0064 60.0064H388.3008a60.1088 60.1088 0 0 1-60.0064-60.0064V743.5264a60.1088 60.1088 0 0 1 60.0064-60.0064h468.5824a61.44 61.44 0 0 1 57.0368 60.0064z m-126.1568-122.88l117.1456-87.1424 6.0416-6.0416a32.5632 32.5632 0 0 0-6.0416-41.984l-114.0736-87.3472a30.0032 30.0032 0 1 0-36.0448 48.0256l84.0704 63.0784-84.0704 63.0784A30.72 30.72 0 0 0 742.7072 593.92a27.0336 27.0336 0 0 0 27.0336 27.0336c6.0416 9.0112 12.0832 2.9696 18.0224 0z m0 0"  fill="#6e6e6e"></path></svg>