<svg class="icon" viewBox="0 0 1024 1024" version="1.1" xmlns="http://www.w3.org/2000/svg"
     data-spm-anchor-id="a313x.search_index.0.i24.5b9e3a81IV0O4I" width="16" height="16">
    <path d="M506.816 469.333333c19.008 0 28.522667-22.976 15.082667-36.416l-97.813334-97.834666a21.333333 21.333333 0 0 1 0-30.165334l30.165334-30.165333a21.333333 21.333333 0 0 1 30.165333 0l222.165333 222.165333a21.333333 21.333333 0 0 1 0 30.165334L484.416 749.248a21.333333 21.333333 0 0 1-30.165333 0l-30.165334-30.165333a21.333333 21.333333 0 0 1 0-30.165334l97.813334-97.834666c13.44-13.44 3.925333-36.416-15.082667-36.416H85.333333a21.333333 21.333333 0 0 1-21.333333-21.333334v-42.666666a21.333333 21.333333 0 0 1 21.333333-21.333334h421.482667z"
          fill="#50a661" class=""></path>
    <path d="M320 874.666667a21.333333 21.333333 0 0 1 21.333333-21.333334h490.666667a21.333333 21.333333 0 0 0 21.333333-21.333333V192a21.333333 21.333333 0 0 0-21.333333-21.333333H341.333333a21.333333 21.333333 0 0 1-21.333333-21.333334V106.666667a21.333333 21.333333 0 0 1 21.333333-21.333334h576a21.333333 21.333333 0 0 1 21.333334 21.333334v810.666666a21.333333 21.333333 0 0 1-21.333334 21.333334H341.333333a21.333333 21.333333 0 0 1-21.333333-21.333334v-42.666666z"
          fill="#929596" class=""></path>
</svg>