<svg class="icon" viewBox="0 0 1024 1024" version="1.1" xmlns="http://www.w3.org/2000/svg"
     data-spm-anchor-id="a313x.search_index.0.i11.5b9e3a81IV0O4I" width="16" height="16">
    <path d="M324.86000003 552.00000031c-17.82 0-26.74000031 21.54-14.1400003 34.14l91.70000061 91.71999938a19.99999969 19.99999969 0 0 1 0 28.28000061l-28.28000062 28.2799997a19.99999969 19.99999969 0 0 1-28.27999969 0l-208.27999969-208.27999969a19.99999969 19.99999969 0 0 1 0-28.28000062L345.86000003 289.58a19.99999969 19.99999969 0 0 1 28.27999969 0l28.28000062 28.2799997a19.99999969 19.99999969 0 0 1 0 28.28000061l-91.70000061 91.71999938c-12.6 12.6-3.6799997 34.14 14.1400003 34.14L720.00000034 471.99999969a19.99999969 19.99999969 0 0 1 19.99999969 20.00000062l0 39.99999938a19.99999969 19.99999969 0 0 1-19.99999969 20.00000062l-395.14000031 0z"
          class="" fill="#db5860"></path>
    <path d="M332 852.00000031a19.99999969 19.99999969 0 0 1 19.99999969-20.00000062h460.00000031a19.99999969 19.99999969 0 0 0 19.99999969-19.99999969V212a19.99999969 19.99999969 0 0 0-19.99999969-19.99999969H351.99999969a19.99999969 19.99999969 0 0 1-19.99999969-20.00000062V132.00000031a19.99999969 19.99999969 0 0 1 19.99999969-20.00000062h540a19.99999969 19.99999969 0 0 1 20.00000062 20.00000062v759.99999938a19.99999969 19.99999969 0 0 1-20.00000062 20.00000062H351.99999969a19.99999969 19.99999969 0 0 1-19.99999969-20.00000062v-39.99999938z"
          class="" fill="#afb1b3"></path>
</svg>