<svg class="icon" viewBox="0 0 1024 1024" version="1.1" xmlns="http://www.w3.org/2000/svg" xmlns:xlink="http://www.w3.org/1999/xlink" width="16" height="16">
    <path d="M276.48 289.877333l20.906667 83.754667a42.666667 42.666667 0 0 1-82.773334 20.736l-42.666666-170.666667a42.666667 42.666667 0 0 1 59.434666-49.066666l640 298.666666a42.666667 42.666667 0 0 1 0 77.354667l-640 298.666667a42.666667 42.666667 0 0 1-59.093333-50.346667l85.333333-298.666667A42.666667 42.666667 0 0 1 298.666667 469.333333h170.666666a42.666667 42.666667 0 0 1 0 85.333334H330.837333l-50.773333 177.792L752.426667 512 276.48 289.877333z" fill="#dbdbdb"/>
</svg>