<svg class="icon" viewBox="0 0 1024 1024" version="1.1" xmlns="http://www.w3.org/2000/svg"
     width="16" height="16">
    <path d="M515.381 332.886c-99.252 0-180 80.748-180 180s80.748 180 180 180c16.568 0 30-13.432 30-30s-13.432-30-30-30c-66.168 0-120-53.832-120-120s53.832-120 120-120 120 53.832 120 120c0 28.897-10.415 56.813-29.326 78.604-10.859 12.514-9.518 31.462 2.995 42.321 12.516 10.858 31.461 9.518 42.321-2.995 28.38-32.704 44.01-74.586 44.01-117.931-0.001-99.251-80.749-179.999-180-179.999z"
          fill="#afb1b3"></path>
    <path d="M951.308 430.47l-116.74-18.241a5.435 5.435 0 0 1-4.325-3.708 332.293 332.293 0 0 0-19.083-46.504 5.435 5.435 0 0 1 0.503-5.715l70.136-93.089a10.86 10.86 0 0 0-0.995-14.215L779.268 147.464a10.844 10.844 0 0 0-7.683-3.181c-2.234 0-4.479 0.687-6.399 2.088l-93.385 68.145a5.397 5.397 0 0 1-3.186 1.037c-0.863 0-1.73-0.205-2.526-0.619a332.249 332.249 0 0 0-50.188-21.063 5.432 5.432 0 0 1-3.698-4.32l-18.18-116.367A10.86 10.86 0 0 0 583.292 64h-143.59a10.86 10.86 0 0 0-10.755 9.348l-16.311 115.993a5.434 5.434 0 0 1-3.718 4.406 332.237 332.237 0 0 0-48.79 20.277 5.476 5.476 0 0 1-2.498 0.604 5.394 5.394 0 0 1-3.187-1.038l-93.579-68.287a10.834 10.834 0 0 0-6.399-2.088 10.844 10.844 0 0 0-7.683 3.181l-101.53 101.535a10.862 10.862 0 0 0-0.995 14.215l69.511 92.26a5.432 5.432 0 0 1 0.487 5.744 332.082 332.082 0 0 0-20.074 48.459 5.434 5.434 0 0 1-4.324 3.708L73.684 430.47a10.86 10.86 0 0 0-9.184 10.731v143.591a10.86 10.86 0 0 0 9.348 10.755l112.846 15.868a10.836 10.836 0 0 1 8.761 7.257 332.03 332.03 0 0 0 17.874 42.799 10.836 10.836 0 0 1-1.035 11.383l-69.242 91.902a10.86 10.86 0 0 0 0.995 14.215L245.58 880.507a10.844 10.844 0 0 0 7.683 3.181c2.235 0 4.48-0.687 6.399-2.088l96.84-70.667a5.4 5.4 0 0 1 3.188-1.038c0.841 0 1.685 0.195 2.465 0.587a332.152 332.152 0 0 0 46.692 19.211 5.436 5.436 0 0 1 3.718 4.407l16.39 116.552A10.86 10.86 0 0 0 439.71 960H583.3c5.351 0 9.904-3.897 10.731-9.184l18.271-116.929a5.432 5.432 0 0 1 3.699-4.322 332.134 332.134 0 0 0 46.685-19.275 5.471 5.471 0 0 1 2.471-0.59c1.125 0 2.243 0.349 3.188 1.038l95.644 69.794a10.834 10.834 0 0 0 6.399 2.088c2.798 0 5.579-1.077 7.683-3.181l101.534-101.534a10.86 10.86 0 0 0 0.994-14.215l-70.469-93.531a5.432 5.432 0 0 1-0.478-5.761 332.174 332.174 0 0 0 20.357-48.726 5.434 5.434 0 0 1 4.402-3.707l116.742-16.417a10.86 10.86 0 0 0 9.348-10.755V441.201a10.878 10.878 0 0 0-9.193-10.731zM900.49 542.081l-74.443 10.468a65.321 65.321 0 0 0-33.082 14.789 65.427 65.427 0 0 0-19.998 29.689 273.071 273.071 0 0 1-16.679 39.92 65.426 65.426 0 0 0-7.039 35.297 65.306 65.306 0 0 0 12.948 34.02l44.766 59.417-41.592 41.592-61.679-45.009c-11.268-8.219-24.597-12.564-38.547-12.564a65.803 65.803 0 0 0-29.515 7.031 272.956 272.956 0 0 1-38.249 15.793 65.463 65.463 0 0 0-29.394 19.618 65.347 65.347 0 0 0-14.977 32.483l-11.778 75.377h-58.821l-10.442-74.258a65.31 65.31 0 0 0-14.826-33.12 65.43 65.43 0 0 0-29.766-19.992 272.903 272.903 0 0 1-38.249-15.737 65.806 65.806 0 0 0-29.45-6.998c-13.95 0-27.279 4.344-38.556 12.57l-62.866 45.875-41.593-41.593 43.54-57.79a70.799 70.799 0 0 0 13.971-36.202 70.757 70.757 0 0 0-7.237-38.206 273.17 273.17 0 0 1-14.646-35.066 70.762 70.762 0 0 0-21.937-31.898 70.812 70.812 0 0 0-35.318-15.586l-70.546-9.92V483.26l74.631-11.661a65.353 65.353 0 0 0 32.526-15.019 65.47 65.47 0 0 0 19.606-29.47 273.124 273.124 0 0 1 16.448-39.702 65.418 65.418 0 0 0 6.92-35.205 65.32 65.32 0 0 0-12.938-33.901l-43.809-58.146 41.593-41.593 59.606 43.496c11.269 8.224 24.601 12.57 38.555 12.57a65.796 65.796 0 0 0 29.844-7.198 272.94 272.94 0 0 1 39.98-16.618 65.43 65.43 0 0 0 29.765-19.986 65.319 65.319 0 0 0 14.832-33.13L482.417 124h58.821l11.69 74.815a65.354 65.354 0 0 0 14.982 32.488 65.472 65.472 0 0 0 29.399 19.614 273.114 273.114 0 0 1 41.126 17.262 65.75 65.75 0 0 0 30.186 7.375c13.953 0 27.285-4.347 38.554-12.57l59.411-43.354 41.593 41.593-44.434 58.975a65.344 65.344 0 0 0-12.921 33.695 65.447 65.447 0 0 0 6.712 35.036 273.146 273.146 0 0 1 15.636 38.1 65.466 65.466 0 0 0 19.609 29.467 65.348 65.348 0 0 0 32.528 15.015l75.187 11.747-0.006 58.823z"
          fill="#afb1b3"></path>
</svg>