<?xml version="1.0" standalone="no"?><!DOCTYPE svg PUBLIC "-//W3C//DTD SVG 1.1//EN" "http://www.w3.org/Graphics/SVG/1.1/DTD/svg11.dtd"><svg t="1696989026015" class="icon" viewBox="0 0 1024 1024" version="1.1" xmlns="http://www.w3.org/2000/svg" p-id="11967" xmlns:xlink="http://www.w3.org/1999/xlink" width="200" height="200"><path d="M512 97.52381c228.912762 0 414.47619 185.563429 414.47619 414.47619s-185.563429 414.47619-414.47619 414.47619S97.52381 740.912762 97.52381 512 283.087238 97.52381 512 97.52381z m0 73.142857C323.486476 170.666667 170.666667 323.486476 170.666667 512s152.81981 341.333333 341.333333 341.333333 341.333333-152.81981 341.333333-341.333333S700.513524 170.666667 512 170.666667z m73.142857 195.047619a73.142857 73.142857 0 0 1 73.142857 73.142857v146.285714a73.142857 73.142857 0 0 1-73.142857 73.142857h-146.285714a73.142857 73.142857 0 0 1-73.142857-73.142857v-146.285714a73.142857 73.142857 0 0 1 73.142857-73.142857h146.285714z m0 73.142857h-146.285714v146.285714h146.285714v-146.285714z" p-id="11968" fill="#bfbfbf"></path></svg>