<?xml version="1.0" standalone="no"?><!DOCTYPE svg PUBLIC "-//W3C//DTD SVG 1.1//EN" "http://www.w3.org/Graphics/SVG/1.1/DTD/svg11.dtd"><svg t="1718941575522" class="icon" viewBox="0 0 1024 1024" version="1.1" xmlns="http://www.w3.org/2000/svg" p-id="1499" xmlns:xlink="http://www.w3.org/1999/xlink" width="16" height="16"><path d="M768 96a128 128 0 0 1 128 128v576a128 128 0 0 1-128 128H256a128 128 0 0 1-128-128v-576a128 128 0 0 1 128-128h512z m0 76.8H256a51.2 51.2 0 0 0-51.2 51.2v576a51.2 51.2 0 0 0 51.2 51.2h512a51.2 51.2 0 0 0 51.2-51.2v-576a51.2 51.2 0 0 0-51.2-51.2zM608 576a96 96 0 0 1 90.56 64h56.64c7.04 0 12.8 5.76 12.8 12.8v51.2a12.8 12.8 0 0 1-12.8 12.8h-62.272a96 96 0 0 1-169.856 0H268.8A12.8 12.8 0 0 1 256 704v-51.2c0-7.04 5.76-12.8 12.8-12.8h248.64A96 96 0 0 1 608 576z m0 64a31.872 31.872 0 0 0-11.968 2.24 33.344 33.344 0 0 0-17.664 17.472A31.808 31.808 0 0 0 576 672a31.744 31.744 0 0 0 9.344 22.656 31.616 31.616 0 0 0 45.312 0 31.744 31.744 0 0 0-10.368-52.288A33.6 33.6 0 0 0 608 640z m-192-320a96 96 0 0 1 90.56 64H755.2c7.04 0 12.8 5.76 12.8 12.8V448a12.8 12.8 0 0 1-12.8 12.8H500.928a96 96 0 0 1-169.856 0H268.8A12.8 12.8 0 0 1 256 448v-51.2c0-7.04 5.76-12.8 12.8-12.8h56.64A96 96 0 0 1 416 320z m0 64a31.936 31.936 0 0 0-11.968 2.24 33.28 33.28 0 0 0-17.664 17.472A31.808 31.808 0 0 0 384 416a31.808 31.808 0 0 0 54.656 22.656A31.808 31.808 0 0 0 416 384z" p-id="1500" fill="#6e6e6e"></path></svg>